<svg width="40" height="40" xmlns="http://www.w3.org/2000/svg"><defs><linearGradient x1="50%" y1="100%" x2="50%" y2="29.571%" id="a"><stop stop-color="#00339A" offset="0%"/><stop stop-color="#125DF6" offset="100%"/></linearGradient><linearGradient x1="50%" y1="100%" x2="50%" y2="50%" id="b"><stop stop-color="#00339A" offset="0%"/><stop stop-color="#125DF6" offset="100%"/></linearGradient></defs><g fill="none" fill-rule="evenodd"><path d="M0 0h40v40H0z"/><path d="M12.5 5a5.833 5.833 0 0 1 5.833 5.833V25c0 5.523-4.477 10-10 10H6.667V10.833A5.833 5.833 0 0 1 12.5 5z" fill="url(#a)"/><path d="M27.083 5a5.833 5.833 0 0 1 5.834 5.833v2.917a8.75 8.75 0 0 1-8.75 8.75H21.25V10.833A5.833 5.833 0 0 1 27.083 5z" fill="url(#b)"/><path d="M21.667 29.167a5 5 0 1 0 10 0 5 5 0 0 0-10 0z" fill="#4DE1BB" fill-rule="nonzero"/></g></svg>