<svg width="40" height="40" xmlns="http://www.w3.org/2000/svg"><defs><linearGradient x1="57.178%" y1="76.775%" x2="57.178%" y2="21.338%" id="a"><stop stop-color="#00339A" offset="0%"/><stop stop-color="#125DF6" offset="100%"/></linearGradient><linearGradient x1="50%" y1="0%" x2="50%" y2="63.802%" id="b"><stop stop-color="#00339A" offset="0%"/><stop stop-color="#125DF6" offset="100%"/></linearGradient></defs><g fill="none" fill-rule="evenodd"><path d="M0 0h40v40H0z"/><path d="M7.668 5.825a5.334 5.334 0 0 1 7.154 1.738l.131.214 10.333 17.898a5.333 5.333 0 0 1-9.107 5.548l-.13-.215L5.715 13.11a5.333 5.333 0 0 1 1.953-7.285z" fill="url(#a)" transform="translate(.285 2.842)"/><path d="M36.674.715a5.333 5.333 0 0 1 1.952 7.286L25.293 31.095a5.334 5.334 0 0 1-7.066 2.073l-.22-.12a5.333 5.333 0 0 1-1.952-7.286L29.388 2.668A5.334 5.334 0 0 1 36.453.595l.22.12z" fill="url(#b)" transform="translate(.285 2.842)"/><path d="M13.285 8.667a5.333 5.333 0 0 1 1.953 7.285l-5 8.66a5.334 5.334 0 0 1-7.066 2.073l-.22-.12A5.333 5.333 0 0 1 1 19.279l5-8.66a5.334 5.334 0 0 1 7.065-2.073l.22.12z" fill="#4DE1BB"/></g></svg>