<svg width="40" height="40" xmlns="http://www.w3.org/2000/svg"><defs><radialGradient cx="0%" cy="0%" fx="0%" fy="0%" r="134.11%" id="a"><stop stop-color="#00339A" offset="0%"/><stop stop-color="#125DF6" offset="100%"/></radialGradient><radialGradient cx="0%" cy="12.915%" fx="0%" fy="12.915%" r="134.592%" id="b"><stop stop-color="#00339A" offset="0%"/><stop stop-color="#125DF6" offset="100%"/></radialGradient></defs><g fill="none" fill-rule="evenodd"><path d="M0 0h40v40H0z"/><path d="M16.535 18.898C10.138 18.898 6.3 13.78 6.3 8.66" stroke="url(#a)" stroke-width="11.667" stroke-linecap="round" stroke-linejoin="round" transform="translate(0 8)"/><path d="M33.7 15.748c-6.397 0-10.235-5.118-10.235-10.236" stroke="url(#b)" stroke-width="11.667" stroke-linecap="round" stroke-linejoin="round" transform="rotate(180 28.583 14.63)"/><path d="M27.402 26.11a6.3 6.3 0 1 0 12.598 0 6.3 6.3 0 0 0-12.598 0zM0 14.3a6.3 6.3 0 1 0 12.598 0A6.3 6.3 0 0 0 0 14.3z" fill="#4DE1BB" fill-rule="nonzero"/></g></svg>