<svg width="40" height="40" xmlns="http://www.w3.org/2000/svg"><g fill="none" fill-rule="evenodd"><path d="M0 0h40v40H0z"/><path d="m13.323 17.626-.095.255-.713 2.02-2.077.526C9.031 20.784 8 22.11 8 23.667c0 1.793 1.351 3.23 3.02 3.328l.18.005h.8v8h-.8C4.998 35 0 29.91 0 23.667c0-4.43 2.534-8.358 6.334-10.211l.128-.061.013-.027C8.983 8.42 13.998 5.131 19.66 5.004L20 5l.34.004c5.544.124 10.468 3.28 13.025 8.057l.173.334.128.06C37.466 15.31 40 19.238 40 23.668c0 6.145-4.843 11.174-10.91 11.33L28.8 35H28v-8h.8l.18-.005c1.669-.097 3.02-1.535 3.02-3.328 0-1.492-.947-2.772-2.265-3.19l-.173-.05-2.077-.526-.713-2.02-.095-.255c-1.059-2.689-3.564-4.513-6.41-4.62L20 13c-2.955 0-5.585 1.853-6.677 4.626z" fill="#105AF1"/><circle fill="#4DE1BB" cx="20" cy="31" r="6"/></g></svg>